<?xml version="1.0" encoding="utf-8"?><svg viewBox="0 0 32 32" xmlns="http://www.w3.org/2000/svg" xmlns:xlink="http://www.w3.org/1999/xlink"><style>:root>svg{display:none}:root>svg:target{display:block}</style><svg viewBox="0 0 32 32" id="rating" xmlns="http://www.w3.org/2000/svg"><path d="m26.97 11.78-6.23-1.2-2.44-6.03C17.92 3.61 17.02 3 16 3s-1.92.61-2.3 1.55l-2.44 6.03-6.23 1.2a2.506 2.506 0 0 0-1.02 4.47l4.37 3.27-1.26 5.8c-.08.38-.12.77-.12 1.16 0 .67.26 1.31.74 1.78.84.84 2.24.97 3.22.29l5.04-3.5 5.04 3.5c.42.3.92.45 1.44.45 1.39 0 2.52-1.13 2.52-2.52 0-.39-.04-.78-.12-1.16l-1.26-5.8 4.37-3.27a2.506 2.506 0 0 0-1.02-4.47zm-.17 2.87-4.89 3.65c-.31.23-.46.63-.38 1.01l1.39 6.43c.05.24.08.49.08.73 0 .4-.5.65-.82.43L16.57 23a.988.988 0 0 0-1.14 0l-5.61 3.9a.53.53 0 0 1-.67-.06.475.475 0 0 1-.15-.36c0-.25.03-.49.08-.73l1.39-6.43c.08-.38-.07-.78-.38-1.01L5.2 14.65c-.12-.1-.2-.25-.2-.41 0-.24.17-.45.41-.5l6.76-1.31c.33-.06.61-.29.74-.61l2.64-6.53c.15-.37.75-.37.9 0l2.65 6.53c.13.31.4.54.74.61l6.76 1.31a.514.514 0 0 1 .2.91z" fill="#384970"/></svg></svg>